<?xml version="1.0" standalone="no"?>
<!DOCTYPE svg PUBLIC "-//W3C//DTD SVG 20010904//EN"
 "http://www.w3.org/TR/2001/REC-SVG-20010904/DTD/svg10.dtd">
<svg version="1.0" xmlns="http://www.w3.org/2000/svg"
 width="300.000000pt" height="203.000000pt" viewBox="0 0 300.000000 203.000000"
 preserveAspectRatio="xMidYMid meet">
<metadata>
Created by potrace 1.10, written by Peter Selinger 2001-2011
</metadata>
<g transform="translate(0.000000,203.000000) scale(0.100000,-0.100000)"
fill="#000000" stroke="none">
<path d="M864 2007 c-11 -12 -36 -35 -55 -51 -19 -15 -52 -45 -74 -65 -34 -31
-46 -37 -85 -36 -37 1 -51 7 -78 34 -23 24 -30 37 -23 44 6 6 11 16 11 21 0 6
-7 0 -16 -12 -9 -14 -22 -21 -31 -18 -8 3 -12 2 -9 -3 7 -10 -102 -123 -113
-117 -4 3 -13 -12 -20 -33 -14 -47 -14 -74 -1 -66 5 3 18 1 29 -5 13 -6 22 -7
26 0 5 8 92 3 103 -5 8 -7 -28 -53 -98 -126 -51 -53 -83 -79 -98 -79 -13 0
-35 -6 -50 -14 -31 -16 -70 -56 -55 -56 14 0 8 -96 -7 -115 -23 -27 -30 -16
-31 48 l-2 62 -7 -55 c-4 -30 -5 -72 -2 -94 4 -33 6 -36 16 -20 6 11 11 22 11
25 0 3 16 19 35 35 48 40 50 43 32 74 -15 27 -15 30 2 49 12 13 32 21 55 22
33 1 45 11 152 132 64 73 116 133 115 134 -1 1 -50 3 -109 4 -59 1 -109 5
-112 8 -6 11 145 171 161 171 9 0 12 -4 9 -10 -3 -5 1 -10 9 -10 10 0 16 -13
18 -42 3 -45 22 -62 33 -29 8 26 36 34 69 20 24 -11 30 -8 88 47 144 137 160
154 141 154 -10 0 -27 -10 -39 -23z"/>
<path d="M929 2004 l-24 -26 120 5 c66 4 121 6 123 7 1 0 2 6 2 14 0 20 -20
31 -29 17 -4 -6 -42 -14 -84 -17 -69 -6 -77 -5 -71 10 9 24 -9 19 -37 -10z"/>
<path d="M1715 2021 c-9 -9 -56 -20 -163 -40 -26 -5 -49 -16 -58 -29 -8 -12
-22 -22 -30 -22 -8 0 -40 -25 -70 -55 -42 -41 -64 -55 -85 -55 -16 0 -32 0
-36 0 -5 -1 -10 10 -11 22 -4 27 -30 58 -47 58 -17 0 -25 23 -25 73 0 31 -3
38 -10 27 -5 -8 -10 -38 -10 -66 0 -54 8 -64 51 -64 16 0 19 -7 19 -41 0 -24
-4 -38 -10 -34 -5 3 -10 2 -10 -4 0 -5 -3 -18 -6 -28 -5 -17 -5 -17 9 0 8 9
26 17 41 17 14 0 26 6 26 13 0 13 48 15 68 3 7 -4 10 -2 7 6 -7 18 43 61 61
54 9 -3 12 -1 9 4 -3 6 1 10 9 10 9 0 16 5 16 11 0 6 -7 9 -15 5 -22 -8 -18
12 5 24 17 9 20 8 20 -10 0 -11 5 -20 10 -20 6 0 10 -7 10 -16 0 -8 -4 -12
-10 -9 -5 3 -15 -3 -22 -14 -10 -16 -15 -18 -27 -8 -12 10 -14 9 -8 -5 7 -21
-3 -23 -22 -5 -11 10 -12 8 -3 -9 10 -19 7 -24 -34 -45 -37 -18 -47 -20 -54
-9 -6 10 -9 7 -12 -10 -1 -13 -9 -25 -17 -28 -8 -3 -11 0 -7 7 4 6 2 19 -3 28
-9 16 -10 15 -11 -6 0 -20 -3 -22 -27 -16 -15 3 -30 10 -33 13 -7 9 -40 12
-40 3 1 -19 21 -29 74 -34 51 -5 65 -2 110 21 28 14 74 45 101 67 71 57 123
88 136 79 6 -3 40 -6 75 -5 50 1 64 -2 64 -14 0 -9 -6 -12 -17 -9 -15 5 -16 4
-3 -5 8 -6 22 -11 31 -11 9 0 19 -7 23 -15 3 -8 14 -15 25 -15 11 0 22 -9 26
-22 3 -14 8 -18 11 -11 8 19 44 -7 44 -32 1 -19 2 -19 14 -3 7 10 16 15 19 11
11 -10 8 -71 -3 -78 -17 -10 -11 -32 15 -63 14 -17 25 -38 25 -49 0 -28 20
-43 57 -43 22 0 36 -6 43 -20 10 -19 8 -20 -50 -20 -33 0 -60 -3 -60 -7 0 -5
26 -7 58 -5 l59 4 -5 -30 c-4 -29 7 -42 64 -79 18 -11 17 -13 -9 -35 -19 -16
-26 -30 -23 -46 8 -36 12 -38 73 -40 32 -1 69 -4 83 -7 26 -6 30 -20 29 -109
0 -22 6 -43 13 -48 9 -5 8 -8 -5 -8 -16 0 -18 -5 -12 -42 8 -47 12 -55 22 -45
12 13 16 178 4 190 -23 23 -13 74 20 102 31 25 31 27 20 66 -16 52 -46 54 -55
4 -4 -21 -13 -35 -22 -35 -10 0 -13 -7 -8 -25 6 -25 6 -25 -63 -25 -56 0 -70
3 -80 19 -14 22 -8 31 23 31 23 0 34 22 34 73 0 25 -3 27 -43 27 -24 0 -46 3
-50 6 -3 4 0 22 8 41 19 45 19 53 -1 53 -12 0 -15 6 -10 25 6 24 -7 35 -19 15
-3 -5 -22 -10 -42 -10 -36 0 -36 0 -29 38 3 20 8 48 11 62 5 24 5 24 -4 3 -6
-13 -19 -23 -30 -23 -24 0 -37 31 -18 45 14 11 17 81 4 103 -5 6 -21 12 -36
12 -16 0 -37 10 -51 25 -13 14 -34 25 -47 25 -16 0 -23 6 -23 18 0 38 -34 54
-101 51 -38 -3 -64 0 -66 6 -2 7 24 12 68 13 62 3 75 0 95 -19 13 -13 24 -31
24 -41 0 -12 7 -18 23 -18 13 0 32 -9 41 -19 16 -18 66 -35 66 -22 0 3 -23 20
-51 36 -28 17 -58 40 -67 53 -8 13 -28 30 -43 38 -16 8 -29 19 -29 25 0 6 7 6
20 -1 15 -8 18 -8 14 3 -3 9 6 19 25 26 16 7 38 22 48 33 14 17 9 15 -26 -6
-24 -15 -59 -30 -78 -33 -24 -4 -37 -12 -41 -26 -5 -18 -6 -18 -18 4 -10 19
-13 20 -14 7 0 -25 -26 -23 -33 2 -5 20 -1 22 61 23 12 1 22 5 22 9 0 4 8 8
18 8 9 1 28 7 42 15 l25 14 -30 1 c-17 0 -35 -4 -40 -9z m-145 -63 c0 4 9 8
20 9 36 3 22 -31 -20 -51 -22 -11 -40 -23 -40 -28 0 -14 -38 -9 -43 6 -7 17
16 39 28 28 4 -4 4 4 0 17 -5 16 -4 21 4 17 6 -4 11 -2 11 4 0 8 6 8 20 0 11
-6 20 -7 20 -2z"/>
<path d="M2080 2008 c0 -17 3 -19 9 -9 7 11 15 9 40 -10 17 -12 31 -26 31 -31
0 -4 6 -5 13 -3 6 3 27 -8 45 -23 l33 -28 -39 4 c-27 3 -44 -1 -56 -14 -11
-11 -20 -13 -24 -7 -4 6 -25 10 -47 9 -40 -1 -40 -1 -43 -45 -4 -52 7 -67 36
-52 15 8 23 8 27 0 5 -7 13 -5 25 6 14 13 18 13 23 2 7 -17 172 -23 183 -6 3
6 9 7 13 3 3 -5 16 -15 29 -22 22 -12 28 -7 23 21 -2 14 27 -7 82 -59 29 -28
54 -45 54 -38 0 7 -20 27 -44 45 -26 20 -40 36 -34 42 14 14 42 1 85 -40 32
-30 37 -38 25 -47 -8 -6 -20 -22 -26 -36 -10 -22 -12 -22 -12 -5 -2 41 -28
-30 -39 -106 -10 -63 -9 -77 5 -98 13 -20 15 -45 11 -138 -3 -63 -1 -116 4
-119 5 -3 6 -14 3 -24 -3 -11 2 -31 11 -45 9 -14 14 -28 11 -31 -3 -3 0 -15 7
-27 33 -59 59 -97 67 -97 5 0 9 -11 9 -24 0 -12 11 -36 25 -52 41 -46 43 -50
48 -75 3 -15 5 -8 6 18 0 23 6 45 11 48 6 3 10 0 10 -7 0 -8 5 -6 11 5 12 20
4 51 -10 43 -5 -3 -7 2 -4 12 3 12 -13 44 -42 85 -41 60 -44 67 -26 67 16 0
21 6 21 25 0 22 -4 25 -34 25 -28 0 -35 4 -42 28 -4 15 -6 31 -5 36 1 5 3 41
3 80 1 39 5 78 9 88 6 10 3 31 -7 55 -20 47 -28 133 -15 153 9 13 14 13 33 2
22 -12 21 -12 -1 8 -19 16 -22 23 -12 29 25 16 52 -1 107 -68 74 -88 91 -119
201 -355 71 -154 93 -193 93 -168 0 33 -43 131 -64 144 -6 4 -8 10 -4 13 8 9
-11 65 -23 65 -4 0 -6 7 -3 15 4 9 0 15 -10 15 -19 0 -22 16 -3 23 9 3 9 8 -2
21 -8 9 -20 15 -26 12 -7 -2 -21 18 -34 49 -20 47 -84 142 -126 186 -8 9 -15
20 -15 26 0 6 -10 18 -22 27 -13 9 -17 14 -10 11 6 -3 12 -1 12 4 0 6 12 11
28 11 39 0 51 11 45 43 -4 22 -11 27 -35 27 -16 0 -38 4 -48 10 -13 7 -19 6
-24 -5 -17 -45 -86 31 -86 94 0 30 4 41 15 41 18 0 17 3 6 -37 -7 -24 -6 -33
5 -37 11 -4 14 4 14 34 0 29 4 40 15 40 8 0 15 -4 15 -10 0 -5 -4 -10 -10 -10
-5 0 -10 -12 -10 -26 0 -14 4 -23 10 -19 6 3 10 1 10 -5 0 -8 34 -11 113 -9
134 3 144 5 142 30 -2 27 -15 37 -15 11 0 -11 -4 -24 -10 -27 -6 -4 -10 8 -10
30 0 32 3 36 23 33 17 -2 23 -11 25 -35 2 -25 7 -31 19 -26 13 5 15 2 10 -11
-5 -13 -1 -19 14 -23 11 -3 18 -11 15 -19 -3 -7 4 -16 15 -19 10 -4 17 -11 14
-16 -4 -5 1 -9 9 -9 16 0 23 35 9 42 -5 2 -23 20 -40 41 -50 58 -43 121 17
152 32 16 40 35 15 35 -19 0 -85 -58 -85 -75 0 -10 -22 -16 -69 -21 l-69 -6 2
-40 c4 -46 -16 -47 -25 -2 l-7 29 -1 -34 c0 -19 -4 -31 -7 -28 -10 9 -11 87
-1 87 4 0 7 -5 7 -11 0 -5 5 -7 12 -3 7 4 28 11 48 15 l35 7 -35 1 c-19 0 -50
5 -67 10 -27 8 -33 6 -38 -8 -4 -14 -18 -17 -78 -18 -39 0 -80 4 -89 9 -14 7
-18 5 -18 -8 0 -15 -4 -14 -24 5 -20 19 -28 21 -45 12 -12 -7 -21 -16 -21 -22
0 -6 -13 -2 -30 8 -16 9 -30 20 -30 24 0 4 -10 9 -21 12 -14 4 -20 11 -16 21
4 10 1 13 -9 9 -8 -3 -33 8 -56 23 l-41 29 29 7 c26 6 26 6 -8 5 -20 -1 -40 2
-44 6 -4 4 -14 7 -22 7 -9 0 30 -30 86 -67 56 -36 102 -70 102 -75 0 -19 -32
-4 -140 67 -63 41 -118 75 -122 75 -4 0 -8 -10 -8 -22z m147 -114 c19 -5 22
-12 20 -45 -3 -43 -17 -66 -17 -28 l-1 24 -14 -25 -14 -25 -10 25 c-9 24 -10
24 -10 3 -2 -44 -21 -23 -21 22 0 50 15 59 31 18 8 -22 12 -24 19 -13 12 19
13 43 1 35 -5 -3 -12 -1 -16 5 -7 11 0 12 32 4z m-157 -19 c0 -8 7 -15 15 -15
8 0 15 7 15 15 0 8 5 15 10 15 6 0 10 -21 10 -46 0 -27 -4 -43 -10 -39 -5 3
-10 13 -10 21 0 8 -7 14 -15 14 -8 0 -15 -9 -15 -21 0 -11 -4 -17 -10 -14 -5
3 -10 24 -10 46 0 21 5 39 10 39 6 0 10 -7 10 -15z m408 -3 c2 -7 -4 -11 -19
-10 -25 3 -33 -10 -20 -31 8 -12 12 -12 25 -2 13 11 16 11 16 -2 0 -18 -24
-29 -45 -21 -15 6 -21 64 -8 78 11 11 46 3 51 -12z m-102 -38 c0 -18 -3 -34
-8 -34 -4 0 -8 11 -8 25 0 34 -28 32 -33 -2 -3 -23 -4 -21 -6 9 -1 31 3 37 22
40 29 5 31 3 33 -38z m-70 10 c8 -29 -7 -49 -30 -41 -22 9 -20 37 2 38 16 1
16 2 0 6 -24 6 -23 23 2 23 13 0 22 -9 26 -26z m232 -10 c3 -27 0 -31 -20 -30
-28 1 -38 35 -11 37 17 1 17 2 0 6 -22 6 -11 25 11 21 11 -2 18 -15 20 -34z
m140 10 c2 -11 -4 -27 -13 -34 -22 -19 -50 9 -40 39 9 29 49 25 53 -5z m147
-9 c0 -23 -5 -30 -19 -30 -28 0 -43 29 -26 50 21 25 45 14 45 -20z m-154 -119
c5 3 9 -3 9 -13 1 -17 1 -17 11 0 15 26 39 21 39 -8 0 -23 -3 -25 -40 -21 -32
3 -41 0 -45 -15 -9 -27 -22 -24 -29 6 -8 31 1 48 20 41 9 -3 14 1 15 12 0 10
3 12 6 4 2 -6 9 -10 14 -6z m-75 -23 c1 -10 5 -27 9 -38 6 -17 4 -16 -17 5
-18 18 -23 29 -16 38 14 17 24 15 24 -5z m-18 -58 c0 -22 -3 -23 -22 -13 -18
10 -19 9 -8 -4 12 -15 11 -72 -1 -84 -3 -3 -1 -14 6 -25 13 -21 11 -24 -24
-33 -19 -4 -29 -1 -33 9 -7 20 14 55 34 56 13 0 13 1 0 7 -8 4 -17 18 -18 31
-3 18 0 22 12 18 21 -8 20 3 -1 19 -16 11 -16 13 10 19 15 4 27 11 27 16 0 5
4 9 9 9 5 0 9 -11 9 -25z m-11 -194 c-3 -12 1 -22 9 -25 24 -9 16 -33 -13 -41
l-28 -8 25 -7 c14 -5 19 -8 11 -9 -11 -1 -11 -4 0 -17 11 -14 10 -18 -6 -30
-17 -12 -17 -14 -2 -14 19 0 23 -15 7 -25 -8 -5 -7 -11 0 -20 17 -20 3 -35
-31 -35 -22 0 -29 5 -29 20 0 11 5 20 10 20 6 0 10 -7 10 -15 0 -8 7 -15 15
-15 8 0 15 5 15 11 0 5 -5 7 -12 3 -8 -5 -9 -2 -5 9 3 10 2 17 -3 17 -5 0 -8
18 -8 40 0 23 5 40 12 40 7 0 6 4 -2 9 -8 5 -12 21 -11 37 2 16 0 35 -4 42
-11 17 0 32 25 32 15 0 19 -5 15 -19z m-3 -247 c19 -7 22 -44 4 -45 -7 0 -3
-4 8 -9 25 -10 57 -67 47 -84 -3 -6 -3 -8 1 -4 13 11 47 -24 35 -38 -7 -8 -6
-15 2 -20 8 -4 9 -3 5 4 -4 7 -3 12 3 12 18 0 23 -20 9 -37 -11 -14 -10 -15
12 -8 21 7 23 6 13 -6 -14 -17 -1 -45 16 -35 6 4 11 3 11 -2 0 -11 -50 -35
-58 -28 -2 3 -6 16 -7 29 -3 28 -25 69 -43 80 -11 7 -11 11 0 24 12 15 10 15
-12 3 -23 -12 -24 -12 -11 3 12 15 11 17 -13 17 -14 0 -26 5 -26 10 0 6 4 10
9 10 11 0 -28 80 -44 93 -6 4 0 10 13 13 18 5 20 9 10 15 -15 10 -6 12 16 3z"/>
<path d="M2813 2020 c3 -12 24 -16 95 -18 63 -2 92 0 92 8 0 6 -4 8 -10 5 -5
-3 -10 -1 -10 4 0 6 -5 11 -11 11 -5 0 -7 -4 -4 -10 3 -5 -3 -10 -14 -10 -12
0 -21 6 -21 13 0 7 -3 8 -8 2 -9 -13 -42 -16 -42 -4 0 14 -38 11 -43 -3 -4
-10 -8 -9 -17 2 -10 13 -11 13 -7 0z"/>
<path d="M2293 1996 c-26 -9 -30 -15 -21 -24 16 -16 28 -15 28 1 0 8 10 19 23
25 29 14 11 13 -30 -2z"/>
<path d="M1005 1963 c-105 -3 -122 -6 -136 -23 -9 -10 -19 -17 -21 -14 -3 2
-10 -2 -16 -9 -9 -11 -1 -13 46 -9 63 4 132 -18 132 -43 0 -20 -9 -19 -65 6
-43 19 -54 20 -100 10 -47 -11 -63 -22 -151 -109 -55 -54 -129 -131 -165 -172
-105 -119 -126 -140 -140 -140 -8 0 -3 -7 9 -16 24 -17 30 -62 10 -82 -7 -7
-34 -12 -60 -12 -43 0 -48 -2 -48 -22 0 -13 -3 -149 -6 -303 -4 -154 -3 -277
1 -273 4 4 29 -1 56 -12 58 -21 67 -9 10 13 -21 9 -41 23 -44 31 -3 8 -6 87
-6 175 -1 144 1 160 17 164 15 4 15 5 0 6 -14 1 -15 12 -11 84 3 45 8 85 12
89 5 6 35 14 63 17 4 1 22 15 40 31 31 29 33 29 40 10 4 -12 17 -20 30 -20 13
0 75 -2 138 -4 130 -5 146 2 145 56 0 31 -2 33 -37 34 -21 1 -44 7 -53 14 -13
11 -21 11 -43 0 -38 -19 -93 -20 -119 -2 -13 8 -36 12 -53 10 -17 -3 -33 -1
-36 3 -4 8 91 120 108 127 4 2 8 7 8 12 0 5 12 21 28 37 15 16 51 57 80 91 29
34 59 62 67 62 7 0 15 7 18 15 12 30 89 75 129 75 44 0 96 -23 117 -52 10 -15
128 -78 146 -78 1 0 5 9 8 21 3 12 10 18 16 14 6 -3 11 -1 11 4 0 16 -11 13
-33 -6 -19 -17 -19 -17 -12 7 7 24 7 25 -9 5 -17 -20 -17 -20 -11 5 6 24 5 24
-9 6 -9 -11 -16 -14 -16 -8 0 7 -3 11 -7 10 -17 -3 -63 15 -75 30 -11 13 -11
15 3 10 11 -4 15 0 15 16 -1 23 25 29 32 7 3 -8 0 -11 -6 -7 -6 4 -8 -2 -5
-14 3 -11 9 -23 14 -26 5 -3 6 2 3 10 -4 11 0 16 10 16 9 0 16 -7 16 -15 0 -8
6 -12 14 -9 8 3 24 0 37 -6 19 -11 21 -10 16 5 -4 9 -7 48 -7 86 0 50 -3 68
-12 67 -7 -1 -67 -4 -133 -5z m119 -40 c3 -8 4 -19 1 -23 -3 -5 -1 -20 4 -34
9 -21 8 -24 -7 -19 -9 3 -29 15 -44 25 -14 10 -36 18 -47 18 -12 0 -41 10 -64
23 l-42 22 85 5 c97 6 106 4 114 -17z m-597 -496 c3 -4 -1 -7 -10 -7 -13 0
-17 -10 -19 -37 l-1 -38 -4 38 c-3 24 -9 37 -19 37 -8 0 -13 4 -10 8 5 9 53 8
63 -1z m153 -32 c0 -41 -2 -45 -25 -45 -21 0 -25 5 -25 30 0 19 5 30 14 30 8
0 16 7 20 15 10 27 16 16 16 -30z m-60 -21 c0 -19 -5 -24 -25 -24 -21 0 -24 4
-23 28 1 15 7 30 12 34 16 10 36 -11 36 -38z m154 24 c-5 -7 -7 -21 -6 -30 2
-10 -2 -18 -7 -18 -15 0 -14 57 2 63 17 6 21 1 11 -15z m-222 -18 c-2 -16 -8
-30 -13 -30 -5 0 -9 14 -9 30 0 18 5 30 13 30 9 0 12 -10 9 -30z m188 15 c0
-8 -9 -15 -21 -15 -12 0 -17 -4 -14 -11 4 -6 13 -8 21 -5 8 3 14 1 14 -4 0
-16 -40 -11 -46 5 -9 23 3 45 26 45 11 0 20 -7 20 -15z"/>
<path d="M1812 1960 c-37 -9 -57 -23 -27 -19 24 3 75 -17 75 -29 0 -4 -5 -13
-12 -20 -6 -6 -9 -14 -6 -18 11 -10 29 36 23 56 -4 13 -12 17 -23 13 -12 -4
-14 -3 -7 5 6 5 19 12 30 15 20 5 20 5 0 5 -11 0 -35 -4 -53 -8z"/>
<path d="M2984 1863 c11 -45 11 -46 14 -14 4 36 -3 61 -16 61 -5 0 -4 -21 2
-47z"/>
<path d="M456 1804 l-59 -64 111 0 110 0 32 31 c24 24 28 34 18 40 -23 15 -38
10 -48 -16 -17 -44 -50 -28 -64 30 -7 27 -23 46 -36 44 -3 -1 -32 -30 -64 -65z
m78 -6 c9 -36 8 -38 -21 -36 -41 2 -44 7 -27 34 20 30 40 31 48 2z"/>
<path d="M1169 1833 c4 -16 15 -27 29 -30 19 -2 22 2 22 27 0 26 -3 30 -29 30
-27 0 -29 -2 -22 -27z"/>
<path d="M1927 1808 c-3 -9 -1 -20 5 -26 19 -19 18 -111 -1 -122 -9 -4 -12
-12 -8 -17 5 -4 14 0 21 10 7 9 21 17 31 17 14 0 16 -5 11 -26 -20 -80 -20
-84 7 -84 13 0 30 7 37 15 11 14 14 13 25 -2 7 -9 10 -25 7 -35 -3 -12 1 -18
13 -18 13 0 16 -5 11 -22 -20 -73 -22 -68 28 -68 44 0 46 -1 45 -27 -1 -70
-14 -107 -39 -114 -17 -5 -7 -7 33 -8 54 -1 58 0 52 19 -4 14 -2 20 9 20 8 0
17 13 21 31 5 20 16 34 32 40 37 14 43 9 64 -45 l18 -49 -26 -21 c-15 -12 -31
-24 -36 -27 -5 -4 -6 -24 -2 -45 3 -22 9 -70 11 -109 6 -101 9 -108 59 -162
25 -26 51 -60 58 -75 6 -16 15 -28 19 -28 15 0 -7 48 -41 89 -59 71 -73 102
-81 181 -5 41 -10 88 -13 103 -3 20 0 30 12 35 23 9 50 44 51 65 0 12 8 17 30
17 34 0 70 31 69 58 0 13 -2 14 -6 2 -11 -30 -37 -50 -64 -50 -23 0 -32 8 -49
40 -18 34 -25 40 -53 40 -33 0 -48 -10 -87 -60 l-19 -25 -1 52 c0 51 -1 53
-37 71 -28 13 -37 23 -35 38 1 12 -8 41 -20 65 -20 37 -28 44 -53 44 -28 1
-30 3 -27 36 2 26 -3 40 -22 59 -19 17 -26 34 -26 60 0 42 -23 83 -33 58z"/>
<path d="M2100 1753 c0 -5 5 -15 10 -23 8 -13 10 -12 10 3 0 25 22 17 37 -14
9 -17 13 -19 13 -7 0 9 -5 20 -10 23 -6 4 -8 11 -5 16 4 5 -8 9 -24 9 -17 0
-31 -3 -31 -7z"/>
<path d="M2040 1731 c0 -6 15 -18 33 -27 17 -9 47 -28 65 -41 18 -14 35 -23
38 -20 3 2 -21 22 -53 44 -79 54 -83 56 -83 44z"/>
<path d="M1507 1723 c-4 -6 -3 -21 1 -33 7 -20 9 -20 21 -6 8 9 9 16 3 16 -6
0 -12 8 -14 18 -2 11 -6 13 -11 5z"/>
<path d="M2213 1723 c-24 -8 -13 -23 17 -23 17 0 30 4 30 9 0 11 -30 19 -47
14z"/>
<path d="M1108 1688 c19 -19 14 -32 -5 -17 -15 11 -14 10 1 -9 11 -12 25 -22
33 -22 11 0 11 5 -2 30 -9 17 -21 30 -27 30 -9 0 -9 -3 0 -12z"/>
<path d="M2790 1680 c-28 -5 -23 -7 28 -7 34 0 61 1 60 2 -10 8 -59 11 -88 5z"/>
<path d="M2915 1680 c-13 -5 -2 -8 34 -8 56 -2 65 6 15 12 -16 2 -38 0 -49 -4z"/>
<path d="M1388 1663 c-27 -7 -22 -28 7 -31 19 -1 25 3 25 18 0 20 -2 21 -32
13z"/>
<path d="M2472 1630 c-7 -11 -21 -20 -31 -20 -10 0 -25 -8 -32 -17 -12 -16
-12 -17 1 -7 8 6 27 14 41 18 15 3 30 13 33 22 9 24 2 26 -12 4z"/>
<path d="M2380 1615 c0 -25 0 -25 20 -5 11 11 20 22 20 25 0 3 -9 5 -20 5 -15
0 -20 -7 -20 -25z"/>
<path d="M120 1601 c0 -6 5 -13 10 -16 6 -3 10 -40 10 -81 0 -78 -7 -87 -44
-59 -11 8 -32 15 -48 15 -25 0 -27 2 -22 33 l5 32 -15 -34 c-22 -46 -20 -51
15 -51 44 0 89 -47 89 -94 0 -48 -62 -120 -97 -113 -15 3 -23 -1 -23 -9 0 -21
48 -17 82 7 16 12 32 18 36 15 11 -12 -39 -95 -79 -131 -22 -19 -39 -39 -39
-44 0 -20 110 107 126 145 21 49 37 307 23 359 -9 31 -29 49 -29 26z"/>
<path d="M178 1575 c6 -33 12 -36 42 -19 l25 14 -27 -6 c-21 -5 -28 -2 -28 9
0 9 -4 18 -9 21 -4 3 -6 -6 -3 -19z"/>
<path d="M2788 1569 c-17 -9 -16 -12 4 -39 14 -19 31 -30 46 -30 32 0 23 24
-11 28 -23 3 -26 7 -21 28 7 27 6 28 -18 13z"/>
<path d="M1750 1555 c7 -8 25 -15 41 -15 19 0 29 -5 29 -15 0 -8 4 -15 9 -15
5 0 7 9 4 20 -5 19 -19 24 -57 20 -11 -1 -15 3 -12 9 4 6 0 11 -10 11 -13 0
-14 -3 -4 -15z"/>
<path d="M2641 1546 c-15 -18 -2 -27 33 -24 24 2 24 3 9 20 -19 22 -27 22 -42
4z"/>
<path d="M1162 1521 c-9 -13 -13 -14 -20 -3 -7 11 -17 5 -41 -24 -17 -21 -31
-44 -31 -51 0 -16 -42 -17 -58 -1 -8 8 -15 8 -24 1 -21 -17 -55 -21 -93 -13
l-35 8 0 -44 c0 -40 -2 -44 -25 -44 -16 0 -25 6 -25 16 0 13 3 14 14 5 18 -15
30 1 21 29 -3 10 -1 28 5 40 7 13 7 20 1 20 -6 0 -14 -12 -17 -27 -4 -16 -13
-36 -22 -45 -8 -10 -12 -25 -8 -34 4 -10 -1 -26 -11 -38 l-18 -21 23 20 c19
16 40 20 100 21 43 1 84 4 93 8 10 4 20 3 24 -3 9 -15 55 -14 55 2 1 6 13 -3
29 -20 15 -18 32 -33 38 -33 6 0 16 -6 22 -14 13 -16 45 -10 76 14 59 45 81
106 58 161 -7 18 -12 38 -9 44 2 7 -7 12 -23 12 -15 0 -41 6 -58 15 -27 13
-31 13 -41 -1z m74 -36 c28 -19 48 -69 40 -100 -9 -37 -64 -95 -91 -95 -36 0
-95 72 -95 116 0 72 88 120 146 79z m-316 -80 c19 -23 8 -50 -20 -50 -16 0
-26 6 -28 18 -4 18 14 47 28 47 4 0 13 -7 20 -15z m70 -16 c0 -5 -9 -9 -21 -9
-11 0 -18 -4 -14 -10 3 -5 12 -7 20 -3 8 3 15 0 15 -6 0 -6 -11 -11 -25 -11
-21 0 -25 5 -25 29 0 16 6 31 13 34 13 5 37 -10 37 -24z m67 6 c-4 -8 -2 -17
4 -20 5 -4 7 -11 4 -16 -9 -13 -42 -11 -51 3 -5 8 -2 9 9 5 10 -3 17 -2 17 2
0 5 -7 12 -16 15 -20 8 -8 26 18 26 14 0 18 -5 15 -15z"/>
<path d="M1154 1418 c7 -18 11 -39 9 -45 -3 -7 0 -13 5 -13 6 0 13 6 16 13 5
10 7 10 12 0 6 -15 24 -18 24 -5 0 5 -10 14 -22 20 l-23 11 23 0 c15 1 22 7
22 20 0 14 -6 17 -24 14 -13 -3 -27 0 -30 6 -16 25 -24 9 -12 -21z"/>
<path d="M181 1475 c3 -72 19 -72 19 0 0 32 -4 55 -11 55 -6 0 -9 -22 -8 -55z"/>
<path d="M2394 1513 c25 -4 28 -8 24 -33 -2 -16 -1 -27 4 -24 4 3 8 18 8 35 0
26 -3 29 -32 28 -32 -2 -32 -2 -4 -6z"/>
<path d="M2709 1498 c14 -18 3 -25 -14 -9 -14 12 -55 -5 -55 -23 0 -24 17 -28
54 -12 32 13 37 13 46 -2 8 -15 9 -15 10 -1 0 8 -12 26 -27 40 -15 13 -21 16
-14 7z"/>
<path d="M2250 1445 c-11 -13 -9 -15 13 -15 38 0 87 12 87 21 0 4 -14 3 -32
-3 -24 -9 -33 -8 -36 0 -5 16 -17 15 -32 -3z"/>
<path d="M2379 1420 c-9 -23 2 -60 17 -60 21 0 27 22 14 51 -10 24 -10 24 -7
-3 3 -16 1 -28 -4 -28 -4 0 -9 12 -11 28 -2 16 -5 21 -9 12z"/>
<path d="M2750 1422 c0 -6 5 -14 10 -17 6 -3 10 -13 10 -22 0 -8 10 -29 22
-45 29 -42 98 -186 98 -207 0 -9 7 -27 16 -39 9 -13 14 -26 11 -28 -3 -3 8
-31 24 -61 16 -31 26 -59 22 -62 -4 -4 -21 -21 -38 -40 l-30 -34 28 18 c28 18
28 18 34 -3 8 -32 20 -27 15 7 -2 16 2 34 10 42 12 11 9 21 -19 68 -18 30 -33
65 -33 78 0 13 -4 23 -10 23 -5 0 -14 19 -21 42 -13 49 -57 139 -94 194 -14
21 -24 43 -22 48 2 6 -4 20 -14 30 -11 11 -19 14 -19 8z"/>
<path d="M10 1380 c0 -5 7 -7 15 -4 8 4 15 1 15 -5 0 -6 -9 -11 -20 -11 -15 0
-20 -7 -20 -25 0 -22 4 -25 35 -25 40 0 40 -1 21 45 -14 32 -46 49 -46 25z"/>
<path d="M2950 1371 c0 -14 7 -19 25 -17 35 2 35 36 0 36 -18 0 -25 -5 -25
-19z"/>
<path d="M2648 1358 c-16 -5 -28 -16 -28 -24 0 -18 8 -18 27 1 9 9 23 13 34
10 11 -4 19 -2 19 5 0 6 -4 9 -9 6 -5 -4 -11 -2 -13 2 -1 5 -15 5 -30 0z"/>
<path d="M248 1268 c-13 -18 -30 -48 -38 -67 -7 -18 -31 -55 -52 -82 -21 -27
-38 -60 -38 -73 0 -34 15 -41 18 -8 3 40 29 72 60 73 23 2 23 2 5 6 -22 4 -22
5 8 54 17 27 35 47 40 43 12 -7 12 -50 0 -92 -6 -20 -6 -30 0 -27 18 12 9 -52
-11 -73 -16 -17 -17 -22 -6 -22 8 0 16 6 19 13 2 6 2 -31 0 -83 -3 -52 -8 -99
-13 -103 -4 -5 -23 -1 -41 9 -33 17 -34 18 -10 24 14 3 26 10 28 15 4 15 -15
41 -24 32 -4 -5 -1 -12 6 -16 8 -5 9 -11 3 -15 -17 -11 -42 5 -42 27 0 13 -4
17 -9 12 -23 -24 2 -66 60 -105 l59 -39 0 97 c0 53 3 172 7 265 3 92 3 167 1
167 -3 0 -17 -15 -30 -32z"/>
<path d="M585 1245 c-14 -13 -25 -34 -24 -47 1 -18 3 -16 10 9 6 19 21 39 37
47 15 9 21 15 14 16 -7 0 -24 -11 -37 -25z"/>
<path d="M2333 1152 c-2 -35 -1 -36 13 -17 16 21 15 46 -1 52 -5 1 -11 -14
-12 -35z"/>
<path d="M490 1145 c0 -18 -5 -36 -10 -38 -6 -3 -5 -4 2 -3 7 1 14 17 16 35 3
26 7 31 22 26 10 -3 21 -2 23 2 3 4 -8 9 -24 10 -27 2 -29 0 -29 -32z"/>
<path d="M2400 1140 c-8 -5 -11 -10 -5 -10 5 0 4 -5 -3 -12 -19 -19 -14 -28
23 -44 45 -19 45 -19 45 16 0 23 -5 30 -19 30 -11 0 -21 7 -23 15 -2 10 -7 12
-18 5z"/>
<path d="M2810 1105 c0 -30 4 -45 13 -45 8 0 12 14 12 40 0 23 -5 42 -12 44
-9 4 -13 -7 -13 -39z"/>
<path d="M2680 1066 c0 -14 5 -28 10 -31 6 -4 10 7 10 24 0 17 -4 31 -10 31
-5 0 -10 -11 -10 -24z"/>
<path d="M39 1050 c-14 -11 -18 -19 -9 -18 8 2 19 -11 26 -32 l13 -35 -1 37
c-1 20 5 44 12 53 19 23 -12 20 -41 -5z"/>
<path d="M2750 1015 c0 -34 1 -35 40 -35 33 0 38 3 33 18 -7 21 -43 51 -60 52
-8 0 -13 -14 -13 -35z"/>
<path d="M2276 975 c-8 -30 -6 -33 26 -49 13 -7 24 -16 24 -21 5 -35 19 -54
42 -58 15 -3 29 -4 31 -1 2 2 -19 29 -46 61 -27 32 -54 66 -60 77 -9 17 -11
16 -17 -9z"/>
<path d="M482 963 c-56 -49 -28 -99 63 -114 103 -18 279 -7 308 18 20 19 23
83 5 101 -15 15 -89 16 -85 1 1 -6 -4 -14 -10 -16 -7 -3 -13 -1 -13 4 0 4 -43
6 -96 5 -61 -3 -100 0 -107 7 -16 16 -42 13 -65 -6z m59 -20 c13 -15 11 -16
-13 -9 -25 6 -28 4 -28 -19 0 -33 22 -32 54 2 24 26 27 26 42 11 9 -9 14 -24
11 -32 -9 -22 -37 -32 -47 -17 -6 10 -12 10 -28 0 -25 -16 -52 2 -52 35 0 42
37 59 61 29z m279 -28 c0 -25 -4 -45 -10 -45 -5 0 -10 20 -10 45 0 25 5 45 10
45 6 0 10 -20 10 -45z m30 0 c0 -25 -4 -45 -10 -45 -5 0 -10 20 -10 45 0 25 5
45 10 45 6 0 10 -20 10 -45z m-187 16 c4 -1 7 -13 7 -27 0 -17 -6 -28 -20 -31
-11 -3 -20 -9 -20 -14 0 -5 -4 -9 -9 -9 -7 0 -8 66 -2 87 1 1 9 0 19 -2 9 -2
20 -4 25 -4z m65 -24 c2 -19 -2 -29 -15 -34 -10 -4 -21 -11 -25 -17 -4 -6 -8
10 -8 35 0 42 2 46 23 45 16 -1 23 -8 25 -29z m62 7 c0 -8 -8 -14 -17 -15 -16
0 -16 -1 1 -8 14 -5 16 -10 7 -15 -20 -13 -41 2 -41 28 0 25 15 37 38 28 6 -2
12 -10 12 -18z"/>
<path d="M1550 965 c-19 -7 -45 -14 -57 -14 -13 -1 -23 -5 -23 -10 0 -15 -65
-40 -91 -35 -19 5 -21 3 -9 -5 8 -6 24 -11 35 -12 12 0 3 -7 -22 -17 -24 -9
-43 -22 -43 -29 0 -7 -13 -27 -29 -45 -27 -30 -35 -33 -85 -33 -41 0 -56 -4
-56 -14 0 -10 15 -12 66 -9 71 4 71 4 142 97 26 34 194 121 234 121 26 0 96
-21 134 -41 12 -6 30 -9 40 -7 13 2 -1 13 -44 36 -70 35 -130 41 -192 17z"/>
<path d="M2760 966 c0 -9 63 -67 67 -62 7 6 -17 56 -26 56 -5 0 -16 3 -25 6
-9 3 -16 3 -16 0z"/>
<path d="M1494 891 c-69 -33 -88 -47 -123 -95 -48 -65 -66 -76 -120 -76 l-41
0 0 -45 c0 -38 -3 -45 -20 -45 -19 0 -20 -7 -20 -170 0 -163 1 -170 20 -170
18 0 20 -7 20 -85 0 -82 -1 -85 -23 -85 -20 0 -24 -5 -24 -32 0 -18 4 -39 10
-45 7 -9 5 -13 -7 -13 -10 0 -17 9 -18 28 0 15 -2 32 -3 37 -2 6 -4 21 -5 35
l-1 25 -11 -22 c-6 -13 -15 -23 -20 -23 -10 0 -75 58 -124 110 -42 44 -93 114
-119 163 -17 32 -32 47 -45 47 -21 0 -28 16 -9 22 6 2 -12 28 -39 58 -30 33
-46 57 -40 61 6 4 3 9 -8 13 -16 5 -19 13 -16 47 3 32 -1 46 -18 64 -21 22
-30 24 -114 23 -50 0 -106 3 -123 7 -22 5 -33 4 -33 -4 0 -6 3 -12 8 -12 4 -1
22 -3 41 -5 19 -2 37 -8 40 -12 3 -5 43 -8 88 -7 l83 2 0 -38 c0 -21 -4 -41
-10 -44 -16 -10 -12 -23 8 -29 16 -5 119 -139 220 -286 35 -52 103 -124 150
-160 38 -29 40 -63 4 -68 -12 -2 -20 -7 -17 -12 3 -5 1 -11 -5 -15 -6 -4 -10
9 -10 34 0 35 -6 46 -46 83 -25 23 -63 68 -85 99 -26 36 -47 56 -57 55 -9 -2
-16 -6 -15 -10 4 -11 74 -95 126 -152 26 -29 53 -68 58 -88 10 -36 26 -45 46
-25 7 7 21 3 47 -12 29 -17 40 -19 46 -10 5 9 22 11 56 7 27 -3 63 -8 79 -10
17 -2 21 -1 11 1 -11 3 -25 11 -33 18 -15 16 -18 95 -3 95 6 0 10 -13 10 -30
0 -44 31 -70 83 -70 23 0 57 -4 75 -9 20 -6 32 -6 32 0 0 5 41 9 91 8 50 0 93
2 96 5 3 3 14 1 24 -5 13 -6 25 -6 39 1 16 9 22 8 26 -5 4 -8 18 -15 33 -15
22 1 24 2 10 13 -47 36 -51 97 -10 138 41 40 91 40 132 0 41 -41 37 -102 -10
-138 -14 -11 -12 -12 10 -13 27 0 40 19 55 82 9 42 -42 113 -90 122 -31 6 -66
3 -66 -6 0 -4 -7 -8 -15 -8 -8 0 -15 -5 -15 -11 0 -5 -4 -8 -10 -4 -12 7 -44
-41 -35 -55 8 -13 -177 -14 -191 0 -6 6 -22 6 -44 0 -45 -13 -117 -13 -125 0
-8 13 -62 13 -70 0 -4 -6 -16 -4 -31 6 -22 15 -24 23 -24 89 0 59 -4 75 -20
90 -18 16 -20 31 -20 150 0 117 2 135 20 158 11 14 20 34 20 46 0 23 27 41 62
41 26 0 124 91 111 104 -4 4 0 4 10 0 12 -4 16 -2 12 8 -9 22 142 90 197 90
61 0 85 -13 150 -75 88 -86 100 -92 153 -77 25 7 45 17 45 22 0 5 7 5 18 0 9
-5 23 -7 30 -5 7 3 32 -7 56 -21 24 -14 67 -31 95 -37 48 -10 50 -12 53 -46 3
-37 14 -48 61 -58 24 -5 27 -10 27 -43 0 -20 4 -52 9 -69 13 -46 -3 -50 -29
-8 -12 19 -24 35 -27 35 -2 0 5 -16 17 -35 l22 -35 -34 -1 c-167 -5 -208 -1
-225 18 -10 10 -14 13 -9 6 12 -18 3 -25 -34 -28 -17 -1 -33 -5 -37 -8 -3 -4
-11 -3 -17 2 -15 11 -66 20 -66 11 0 -4 -17 -7 -37 -6 -37 1 -38 0 -36 -32 0
-18 3 -36 6 -38 3 -3 38 -7 78 -10 41 -2 81 -5 89 -6 37 -4 120 15 120 28 0 8
4 14 10 14 5 0 7 -6 4 -14 -7 -19 16 -24 111 -22 60 1 83 -3 92 -14 11 -13 12
-13 13 3 0 12 8 17 31 17 21 0 28 -4 23 -12 -4 -7 2 -4 14 6 26 22 29 10 6
-23 -16 -22 -16 -22 12 -19 33 3 46 36 20 50 -20 11 -21 42 -2 57 11 9 19 9
35 -1 22 -14 28 -43 11 -51 -6 -3 -5 -4 2 -3 7 1 14 19 16 39 3 33 5 36 23 27
15 -8 19 -7 19 4 0 8 3 21 6 30 7 19 -21 23 -32 4 -4 -7 -3 -8 4 -4 7 4 12 3
12 -2 0 -6 -17 -8 -39 -5 -29 4 -44 1 -56 -11 -21 -20 -39 -20 -70 0 -24 16
-27 26 -40 127 -4 26 -10 45 -16 42 -5 -4 -9 7 -9 24 0 16 5 31 12 33 7 3 6 7
-5 11 -9 3 -17 2 -17 -2 0 -5 -10 -7 -22 -4 -23 5 -23 5 1 -15 15 -12 22 -25
18 -36 -7 -18 -42 -22 -52 -5 -11 16 3 23 19 10 8 -7 17 -8 20 -3 3 5 -6 14
-20 21 -32 14 -26 34 12 41 39 7 20 17 -47 25 -62 8 -103 21 -141 47 -32 22
-102 24 -151 3 -20 -8 -41 -15 -46 -15 -5 0 -42 33 -83 73 -111 111 -169 122
-304 58z m336 -468 c0 -15 2 -14 16 3 15 18 15 18 9 -11 -9 -40 -14 -44 -31
-21 -16 23 -18 46 -4 46 6 0 10 -8 10 -17z m79 -28 c1 -6 -8 -11 -19 -11 -23
0 -25 8 -8 39 11 21 11 21 19 2 4 -11 8 -25 8 -30z m45 -7 c6 -5 2 -8 -11 -8
-17 0 -23 6 -23 23 0 33 14 44 19 15 1 -12 8 -26 15 -30z m40 9 c5 -21 3 -28
-6 -25 -7 3 -14 20 -16 39 -4 40 12 30 22 -14z m53 23 c-1 -11 -6 -20 -12 -20
-5 0 -3 -5 5 -10 12 -8 11 -10 -7 -10 -17 0 -23 6 -23 23 0 27 7 37 26 37 7 0
12 -9 11 -20z m47 12 c3 7 3 0 0 -17 -9 -49 -17 -49 -28 -1 -6 25 -5 28 7 17
12 -9 16 -9 21 1z m81 -25 c1 -15 -3 -27 -7 -27 -4 0 -8 6 -8 13 0 8 -4 7 -10
-3 -7 -11 -10 -7 -10 18 0 27 4 33 18 30 11 -2 17 -13 17 -31z m55 -12 c0 -6
-9 -11 -20 -11 -21 0 -25 12 -13 42 6 16 7 16 20 -2 7 -10 13 -23 13 -29z m60
16 c0 -24 -4 -28 -25 -28 -20 0 -25 5 -25 24 0 18 4 24 15 20 8 -4 17 -2 20 3
10 17 15 11 15 -19z m48 11 c2 -7 -1 -11 -6 -10 -6 2 -10 -1 -10 -7 0 -5 4 -9
9 -7 5 1 9 -2 9 -8 0 -5 -9 -10 -20 -10 -14 0 -20 7 -20 23 0 37 27 50 38 19z
m33 -4 c0 -10 2 -10 6 0 8 21 23 13 23 -13 0 -25 -19 -36 -21 -12 0 10 -2 10
-6 0 -8 -22 -23 -14 -23 12 0 25 19 36 21 13z m-1026 -343 c0 -33 -4 -41 -21
-43 -19 -3 -22 3 -26 38 -4 47 -2 52 27 48 16 -2 20 -10 20 -43z m185 25 c21
-21 28 -70 9 -70 -6 0 -8 8 -4 19 3 11 1 22 -5 26 -6 4 -10 -4 -10 -19 0 -14
-4 -26 -10 -26 -5 0 -10 20 -10 45 0 25 2 45 5 45 3 0 14 -9 25 -20z m-44 -36
c0 -18 -2 -34 -6 -34 -9 0 -20 62 -13 73 9 15 17 -3 19 -39z m-356 10 c12 -30
6 -44 -20 -44 -26 0 -32 14 -20 44 12 33 28 33 40 0z m253 -11 c-3 -18 -9 -33
-14 -33 -14 0 -11 58 4 63 16 6 15 7 10 -30z m67 18 c14 -27 2 -53 -24 -49
-36 5 -31 67 6 68 4 0 12 -9 18 -19z m160 -7 c0 -8 -7 -14 -15 -14 -8 0 -15
-4 -15 -10 0 -5 7 -7 15 -4 8 4 15 1 15 -6 0 -6 -10 -10 -22 -8 -26 3 -35 32
-18 53 13 16 40 9 40 -11z m56 17 c18 15 31 3 36 -31 3 -27 -25 -41 -45 -21
-8 8 -6 11 8 11 18 0 18 0 0 14 -24 18 -38 11 -30 -15 4 -11 2 -19 -4 -19 -15
0 -14 57 2 63 6 2 14 0 15 -5 2 -5 10 -3 18 3z m-436 -16 c0 -8 -8 -16 -17
-16 -17 -1 -17 -2 0 -6 24 -6 22 -23 -3 -23 -23 0 -35 22 -26 45 7 20 46 20
46 0z"/>
<path d="M30 760 c0 -73 2 -131 5 -128 8 7 7 249 0 256 -3 3 -5 -55 -5 -128z"/>
<path d="M1822 833 l57 -56 43 16 c47 18 133 23 142 8 13 -20 97 -50 146 -52
43 -2 60 -9 87 -32 21 -18 33 -39 34 -56 l1 -26 7 25 c5 16 8 -8 9 -62 0 -48
5 -96 11 -107 15 -28 49 -36 70 -17 10 9 32 16 49 16 31 0 32 1 32 44 0 34 -4
46 -17 49 -16 3 -16 5 2 12 26 11 35 24 35 57 0 14 6 29 13 31 6 3 3 6 -8 6
-16 1 -20 -5 -20 -31 0 -26 -5 -34 -21 -36 -16 -2 -23 3 -26 23 -3 14 -1 28 3
31 5 3 9 -4 9 -15 0 -11 5 -23 11 -26 7 -5 9 4 7 26 -2 26 -9 35 -33 43 -66
24 -96 68 -73 109 9 17 8 19 -7 14 -9 -4 -21 -7 -26 -7 -6 0 -8 -4 -5 -9 9
-14 -49 -72 -60 -61 -6 6 -37 13 -69 16 -62 6 -159 49 -149 66 6 10 -90 4
-153 -10 -36 -8 -45 -6 -59 9 -10 11 -13 19 -8 19 10 0 -74 40 -84 40 -4 0 19
-25 50 -57z m562 -135 c-6 -9 -53 22 -54 36 0 5 8 18 17 28 16 18 17 17 29
-19 7 -20 11 -40 8 -45z m66 -7 c0 -5 -9 -7 -20 -4 -16 4 -20 0 -20 -20 0 -28
15 -44 25 -27 3 5 1 10 -6 10 -10 0 -10 3 -1 12 16 16 37 -4 28 -27 -10 -26
-60 -16 -64 13 -2 13 -1 30 2 38 6 15 56 20 56 5z m-55 -71 c3 -5 25 -10 48
-10 31 0 38 -3 27 -10 -13 -9 -13 -12 3 -24 32 -24 18 -56 -32 -73 -24 -8 -47
-11 -52 -6 -12 12 -28 103 -22 120 6 15 19 17 28 3z"/>
<path d="M74 775 c0 -60 1 -84 3 -52 2 32 2 81 0 110 -2 29 -3 3 -3 -58z"/>
<path d="M2891 830 c-2 -40 -47 -98 -78 -103 -27 -4 -27 -4 4 -6 27 -1 35 5
58 44 15 26 24 55 22 68 -4 20 -4 20 -6 -3z"/>
<path d="M2944 835 c16 -12 22 -12 28 -2 6 9 10 9 19 -3 9 -13 10 -13 6 0 -2
9 -18 16 -38 18 -32 2 -33 1 -15 -13z"/>
<path d="M2410 805 c-26 -31 25 -85 80 -85 11 0 20 -4 20 -10 0 -19 59 -11 70
10 6 11 15 18 19 16 4 -3 3 13 -3 35 l-10 40 -11 -43 c-9 -38 -13 -43 -35 -40
-14 2 -29 8 -34 13 -13 12 -29 12 -21 -1 9 -14 -2 -12 -29 5 -27 18 -25 61 3
68 9 3 5 5 -10 6 -15 0 -32 -6 -39 -14z"/>
<path d="M116 801 c8 -9 139 -52 153 -51 3 1 -19 14 -49 30 -51 27 -127 42
-104 21z"/>
<path d="M2658 767 c-7 -56 -14 -66 -51 -69 -24 -2 -27 -7 -27 -36 0 -19 4
-31 10 -27 6 3 10 15 10 26 0 24 37 26 43 2 4 -17 5 -17 6 0 1 18 21 24 21 6
0 -19 -21 -50 -31 -44 -5 4 -9 16 -10 28 -1 20 -2 20 -8 -3 -9 -34 -54 -36
-59 -2 -2 12 -7 22 -12 22 -11 0 -19 -63 -9 -75 5 -5 9 -17 9 -28 0 -17 1 -17
16 -2 11 11 20 13 27 6 5 -5 19 -6 31 -3 11 4 32 7 46 7 21 0 26 -5 28 -32 4
-40 -15 -44 -21 -5 l-4 27 -2 -27 c-1 -35 -21 -37 -21 -3 0 14 -4 25 -10 25
-5 0 -10 -11 -10 -25 0 -14 -4 -25 -10 -25 -5 0 -10 7 -10 15 0 8 -9 15 -21
15 -11 0 -17 -5 -14 -10 4 -6 11 -8 16 -5 5 4 9 1 9 -4 0 -16 -30 -13 -36 4
-5 13 -8 13 -21 -1 -9 -8 -13 -18 -9 -21 3 -4 6 -3 6 0 0 4 11 2 24 -3 15 -5
27 -5 34 2 15 15 21 -2 25 -72 l3 -55 2 63 2 62 34 0 c19 0 36 -6 39 -12 3
-10 11 -9 33 3 18 10 38 13 54 9 14 -4 37 -2 53 3 19 6 32 5 42 -3 8 -6 20 -8
26 -4 7 4 31 7 53 7 23 0 31 2 18 4 -19 4 -23 10 -20 36 2 23 8 32 21 31 26
-2 20 13 -8 20 -21 5 -25 12 -25 46 0 39 6 45 38 41 6 -1 12 6 12 15 0 12 -5
14 -17 9 -24 -11 -263 -12 -263 -2 0 5 -5 5 -12 1 -8 -5 -9 -1 -5 12 6 16 4
15 -12 -3 -23 -28 -47 -31 -36 -5 11 24 18 78 13 94 -3 7 -7 -9 -10 -35z m72
-123 c0 -19 -5 -24 -25 -24 -21 0 -25 5 -25 29 0 16 6 31 13 34 18 7 37 -13
37 -39z m143 9 c-3 -18 -9 -33 -14 -33 -14 0 -11 58 4 63 16 6 15 7 10 -30z
m67 -9 c0 -19 -5 -24 -25 -24 -21 0 -25 5 -25 29 0 16 6 31 13 34 18 7 37 -13
37 -39z m-187 24 c4 -10 8 -9 17 2 9 12 10 7 4 -20 -8 -44 -12 -50 -29 -50 -7
0 -15 -5 -17 -11 -2 -7 -17 -8 -41 -4 -54 10 -41 31 16 27 50 -4 53 0 37 42
-9 26 3 38 13 14z m58 -15 l2 -28 4 28 c6 37 23 34 23 -4 0 -26 -3 -30 -22
-27 -17 2 -24 11 -26 31 -2 15 1 27 7 27 6 0 12 -12 12 -27z m-175 -58 c-5
-13 -13 -15 -38 -10 -39 9 -48 13 -48 25 0 10 43 0 51 -13 4 -5 10 0 14 13 5
15 10 19 17 12 6 -6 8 -18 4 -27z m235 -29 l-4 -41 -9 33 c-7 25 -14 32 -33
32 -40 0 -28 15 13 16 l37 1 -4 -41z m-81 -11 c0 -42 -19 -66 -21 -27 -1 16
-2 16 -6 0 -2 -10 -11 -18 -19 -18 -8 0 -14 -4 -14 -10 0 -5 -4 -10 -10 -10
-5 0 -10 18 -10 39 0 45 26 64 47 35 12 -16 13 -15 13 9 0 15 5 27 10 27 6 0
10 -20 10 -45z m141 35 c37 -21 15 -86 -28 -78 -16 3 -19 16 -14 71 1 19 14
22 42 7z m-83 -33 c2 -12 -3 -17 -18 -17 -12 0 -19 -4 -15 -10 3 -5 12 -7 20
-3 8 3 15 0 15 -7 0 -18 -44 -7 -48 13 -4 21 16 49 32 44 6 -2 12 -11 14 -20z"/>
<path d="M2900 556 c0 -17 5 -26 16 -26 10 0 14 7 12 22 -5 32 -28 35 -28 4z"/>
<path d="M2780 776 c0 -24 12 -41 22 -30 8 7 -3 54 -13 54 -5 0 -9 -11 -9 -24z"/>
<path d="M101 734 c0 -38 2 -44 9 -28 5 12 19 29 31 38 26 18 24 22 -14 31
-27 7 -27 7 -26 -41z"/>
<path d="M1453 757 c4 -10 7 -28 8 -40 0 -15 2 -17 6 -7 3 8 10 18 15 21 5 3
-1 14 -13 25 -21 18 -22 18 -16 1z"/>
<path d="M146 725 c-22 -20 -26 -33 -26 -76 0 -64 13 -57 15 7 1 57 29 86 73
75 21 -6 28 -14 30 -39 2 -18 8 -32 14 -32 6 0 5 -6 -2 -16 -11 -12 -10 -18 6
-34 24 -23 205 -35 197 -13 -4 9 -30 13 -94 13 l-89 0 -1 28 c-1 15 0 41 1 57
1 26 -4 32 -33 43 -47 17 -61 15 -91 -13z"/>
<path d="M290 704 c0 -22 2 -24 23 -13 12 6 23 13 25 14 1 1 -9 7 -23 13 -23
11 -25 10 -25 -14z"/>
<path d="M1167 688 c-5 -37 0 -51 14 -43 12 8 12 75 0 75 -5 0 -11 -15 -14
-32z"/>
<path d="M340 690 c-17 -10 -17 -9 33 -38 27 -16 55 -22 98 -22 33 0 59 4 59
10 0 6 -13 10 -30 10 -16 0 -46 9 -67 19 -53 27 -76 32 -93 21z"/>
<path d="M2082 687 c10 -8 22 -25 28 -38 9 -23 10 -23 7 5 -1 21 -9 31 -27 37
-22 8 -23 7 -8 -4z"/>
<path d="M286 654 c-3 -9 -6 -18 -6 -20 0 -2 26 -4 58 -4 l57 1 -50 19 c-27
11 -51 20 -51 20 -1 0 -5 -7 -8 -16z"/>
<path d="M1129 655 c-5 -86 -6 -374 -1 -390 5 -20 5 -20 12 0 11 32 12 378 0
395 -8 13 -10 12 -11 -5z"/>
<path d="M540 650 c0 -5 8 -7 18 -3 9 3 14 3 10 -2 -4 -4 -1 -14 7 -21 17 -18
22 -18 22 1 0 8 -4 12 -9 9 -4 -3 -8 0 -8 6 0 8 9 10 23 7 12 -4 29 -2 37 3
10 7 -3 10 -42 10 -32 0 -58 -4 -58 -10z"/>
<path d="M475 590 c19 -20 41 -28 30 -10 -11 18 11 11 30 -10 10 -11 37 -22
64 -26 60 -8 95 -38 79 -68 -10 -18 -9 -19 4 -8 13 10 22 2 60 -56 25 -38 47
-75 49 -83 3 -10 11 -13 25 -10 19 6 16 14 -47 100 -99 138 -120 158 -161 153
-25 -3 -38 2 -52 17 -13 15 -31 21 -59 21 -39 0 -40 0 -22 -20z"/>
<path d="M1288 569 c-45 -36 -51 -60 -9 -30 16 12 37 21 48 21 14 0 15 2 4 9
-11 7 -10 11 5 20 14 8 15 10 4 10 -8 0 -32 -13 -52 -30z"/>
<path d="M118 513 c-6 -94 3 -115 75 -180 28 -26 99 -93 157 -149 120 -114
177 -160 188 -149 4 4 -2 12 -12 19 -31 18 -176 158 -176 169 0 6 10 22 23 36
l22 26 -26 -22 c-14 -13 -29 -23 -35 -23 -16 0 -158 124 -182 160 -20 31 -23
45 -20 113 2 42 0 77 -3 77 -4 0 -9 -35 -11 -77z"/>
<path d="M37 543 c-4 -3 -7 -29 -7 -58 0 -29 -6 -59 -15 -71 -27 -36 -19 -54
23 -54 45 0 62 -14 62 -50 0 -36 -17 -50 -62 -50 -45 0 -51 -21 -15 -50 18
-15 20 -21 10 -31 -18 -18 -16 -29 5 -30 12 -1 11 -3 -5 -7 l-22 -7 23 -11
c22 -10 23 -9 25 34 1 33 -4 51 -18 66 -20 21 -20 21 5 22 13 1 25 1 25 0 1 0
5 -57 9 -126 l6 -125 2 122 c2 152 20 207 65 200 15 -2 27 0 27 5 0 7 -6 9
-25 8 -12 -1 -36 30 -30 39 3 5 1 12 -4 15 -5 4 -12 -4 -14 -16 -4 -23 -4 -23
-6 -1 -1 17 -7 21 -28 20 l-28 -2 4 83 c3 80 2 89 -12 75z"/>
<path d="M1409 447 c-6 -45 -2 -51 19 -31 10 10 12 18 5 22 -6 4 -13 16 -15
27 -3 13 -6 6 -9 -18z"/>
<path d="M1521 458 c-1 -14 -5 -28 -10 -30 -5 -1 -3 -12 5 -22 20 -28 25 -16
15 35 -6 30 -9 35 -10 17z"/>
<path d="M451 435 c-17 -20 -31 -46 -30 -58 1 -18 2 -17 9 7 5 16 23 42 40 58
17 15 27 28 22 28 -6 0 -24 -16 -41 -35z"/>
<path d="M2578 438 c0 -18 -2 -44 -3 -58 -1 -14 2 -36 6 -50 4 -15 7 8 7 58 1
79 -6 116 -10 50z"/>
<path d="M2615 273 c-4 -54 -16 -134 -26 -178 -23 -96 -23 -109 -3 -72 8 15
12 31 10 36 -3 5 2 12 11 15 15 6 15 8 3 16 -10 7 3 10 43 10 54 0 57 1 57 25
0 20 -5 25 -26 25 -21 0 -24 -3 -15 -13 6 -8 8 -17 4 -20 -11 -12 -41 -8 -45
6 -7 16 2 38 12 32 4 -3 10 9 12 26 4 25 1 33 -14 37 -22 5 -24 40 -3 48 21 8
21 104 1 104 -11 0 -16 -24 -21 -97z"/>
<path d="M10 329 c0 -5 5 -7 10 -4 14 9 13 -8 -2 -23 -6 -6 -9 -15 -5 -18 10
-10 14 -4 22 29 6 21 4 27 -9 27 -9 0 -16 -5 -16 -11z"/>
<path d="M2311 321 c-9 -6 -12 -19 -7 -42 10 -51 8 -79 -9 -112 -17 -34 -19
-57 -5 -57 5 0 10 -26 12 -58 3 -51 4 -44 16 58 16 140 14 223 -7 211z"/>
<path d="M2371 317 c-1 -22 83 -77 120 -77 14 0 32 -7 39 -15 10 -13 9 -19 -6
-38 -19 -22 -19 -22 2 -4 32 26 44 22 39 -15 -4 -26 -3 -29 4 -13 5 11 9 47 9
80 -1 47 -2 51 -5 18 -5 -48 -11 -52 -36 -23 -9 11 -29 20 -43 20 -31 0 -112
48 -118 70 -3 11 -4 11 -5 -3z"/>
<path d="M110 250 l0 -31 30 23 c27 20 29 23 13 30 -34 13 -43 8 -43 -22z"/>
<path d="M1165 205 c0 -51 3 -65 15 -65 12 0 14 12 12 65 -5 89 -27 89 -27 0z"/>
<path d="M173 243 c-34 -6 -63 -54 -63 -102 0 -35 2 -40 14 -29 10 10 11 15 2
21 -8 6 -8 10 2 14 6 2 12 9 12 14 0 6 -5 7 -11 3 -9 -5 3 28 16 44 1 1 19 -5
39 -13 21 -9 35 -11 31 -6 -3 6 -12 11 -19 11 -8 0 -19 7 -26 15 -20 24 28 19
70 -7 l35 -22 -25 -7 c-16 -4 -19 -7 -7 -8 20 -1 22 -12 5 -29 -8 -8 -8 -12
-1 -12 6 0 13 7 17 15 3 8 13 15 22 15 10 0 14 -5 11 -14 -4 -10 7 -19 32 -30
21 -8 66 -38 99 -65 34 -28 67 -51 74 -51 7 0 0 11 -17 23 -16 12 -73 60 -125
106 -89 78 -148 123 -160 120 -3 -1 -15 -4 -27 -6z"/>
<path d="M2443 184 c-3 -8 3 -30 13 -49 23 -43 32 -38 10 6 -20 40 -20 40 2
32 15 -6 15 -5 3 10 -17 21 -20 21 -28 1z"/>
<path d="M2380 171 c0 -6 5 -13 11 -16 6 -4 14 -17 19 -29 7 -17 9 -15 9 17 1
31 -2 37 -19 37 -11 0 -20 -4 -20 -9z"/>
<path d="M2495 130 c3 -5 11 -10 17 -10 15 0 37 -32 31 -47 -4 -9 -11 -8 -30
4 -21 14 -26 14 -36 2 -7 -8 -8 -11 -3 -7 14 11 36 -3 36 -22 0 -10 -6 -21
-12 -24 -7 -4 -3 -4 10 -2 12 2 22 -1 23 -7 1 -15 19 48 25 88 2 17 1 24 -2
18 -4 -10 -10 -10 -27 2 -25 17 -41 20 -32 5z"/>
<path d="M1794 114 c3 -9 6 -22 6 -30 0 -11 8 -14 28 -12 19 2 28 9 30 26 3
20 0 22 -22 16 -16 -4 -26 -2 -26 5 0 6 -5 11 -11 11 -6 0 -8 -7 -5 -16z"/>
</g>
</svg>
